<?xml version="1.0" encoding="utf-8"?>
<!-- Generator: Adobe Illustrator 18.1.1, SVG Export Plug-In . SVG Version: 6.00 Build 0)  -->
<svg version="1.1" id="food" xmlns="http://www.w3.org/2000/svg" xmlns:xlink="http://www.w3.org/1999/xlink" x="0px" y="0px"
	 viewBox="0 0 128 128" enable-background="new 0 0 128 128" xml:space="preserve">
<circle fill="#895ECC" cx="64.1" cy="64" r="64"/>
<path fill="#FFB115" d="M41.6,105.6c8,1.5,16.7-0.9,22.9-7l34.9-34.9c6.3-6.3,8.6-15.1,7-23.2L41.6,105.6z"/>
<path fill="#FFB115" d="M91.1,21.8c-9.3-3.8-20.5-2-28,5.6L28.2,62.3c-7.5,7.5-9.4,18.6-5.6,27.8L91.1,21.8z"/>
<path fill="#ED9015" d="M36.4,104.1c1.9,0.8,3.8,1.3,5.7,1.6l64.4-64.4c-0.3-2-0.9-3.9-1.7-5.8L36.4,104.1z"/>
<path fill="#DC3346" d="M24.3,102.9c0.3,0.3,0.7,0.6,1,0.9l79.1-79.5c-0.2-0.3-0.5-0.6-0.7-0.8l-0.4-0.4c-3.9-3.9-10.3-3.9-14.1,0
	L23.9,88.3c-3.9,3.9-3.9,10.3,0,14.1L24.3,102.9z"/>
<path fill="#C11F36" d="M38.6,102.7l64.9-64.9c4-4,4-10.5,0-14.5l-79.4,79.4C28.1,106.7,34.6,106.7,38.6,102.7z"/>
<path fill="#FFA821" d="M49.7,85.4C53,81.1,53,77,53,76.7c0,0,0,0,0,0c0,0,0,0,0,0l0,0c0,0,0,0,0,0c0,0,0,0,0,0
	c0.1-1.3,0.8-8.4,8.5-8.5c0.1,0,0.3,0,0.4,0c1.3,0.1,5.2,0,9.3-4.1c0,0,0.1-0.1,0.1-0.1c0.5-0.5,0.9-1,1.4-1.6
	c3.3-4.3,3.3-8.3,3.3-8.7c0,0,0,0,0,0c0,0,0,0,0,0l0,0c0,0,0,0,0,0l0,0c0.1-1.3,0.8-8.4,8.5-8.5c0.8,0,1.5-0.3,2.1-0.9
	c1.2-1.2,1.2-3,0-4.2c-0.5-0.5-1.2-0.8-1.9-0.8v0c0,0-4.7-1-9.8,4c0,0-0.1,0.1-0.1,0.1c-0.5,0.5-0.9,1-1.4,1.6
	c-3.3,4.3-3.3,8.3-3.3,8.7c0,0,0,0,0,0c0,0,0,0,0,0l0,0c0,0,0,0,0,0c0,0,0,0,0,0c-0.1,1.3-0.8,8.4-8.5,8.5c-0.1,0-0.3,0-0.4,0
	c-1.3-0.1-5.2,0-9.3,4.1c0,0-0.1,0.1-0.1,0.1c-0.5,0.5-0.9,1-1.4,1.6c-3.3,4.3-3.3,8.3-3.3,8.7c0,0,0,0,0,0c0,0,0,0,0,0l0,0
	c0,0,0,0,0,0l0,0c-0.1,1.3-0.8,8.4-8.5,8.5c-0.8,0-1.5,0.3-2.1,0.9c-1.2,1.2-1.2,3,0,4.2c0.5,0.5,1.2,0.8,1.9,0.8v0c0,0,4.7,1,9.8-4
	c0,0,0.1-0.1,0.1-0.1C48.8,86.5,49.2,86,49.7,85.4z"/>
<g>
	<path fill="#FFFFFF" d="M45.4,73.1c-0.6,0.4-1.1,0.9-1.6,1.4c0,0-0.1,0.1-0.1,0.1c-5,5-4,9.8-4,9.8h0c0,0.3,0.1,0.5,0.2,0.8
		c3.6-0.4,5.4-2.4,6.4-4.4c0.1-0.2,0.1-0.3,0.2-0.4c0.6-1.5,0.8-3,0.8-3.5l0,0c0,0,0,0,0,0l0,0c0,0,0,0,0,0c0,0,0,0,0,0
		c0-0.3,0-2.6,1.4-5.5C47.5,71.6,46.4,72.3,45.4,73.1z"/>
	<path fill="#FFFFFF" d="M68.4,50.1c-0.6,0.4-1.1,0.9-1.6,1.4c0,0-0.1,0.1-0.1,0.1c-1.6,1.6-2.5,3.1-3.1,4.4l0,0
		c-1,2.2-1,4.1-0.9,4.9c0,0.1,0,0.3,0,0.4c0,4.8-2.8,6.9-5.2,7.8l0,0l0,0c-3.2,1.6-4.1,4.9-4.3,6.7c0.4-0.1,0.7-0.1,0.9-0.1
		c0,0,0,0,0,0c0,0,0,0,0,0l0,0c0,0,0,0,0,0c0,0,0,0,0,0c0.3,0,4.4,0,8.7-3.3c0.6-0.4,1.1-0.9,1.6-1.4c0,0,0.1-0.1,0.1-0.1
		c1.3-1.3,2.3-2.7,2.9-3.9c0,0,0,0,0,0c1.3-2.5,1.3-4.6,1.2-5.5c0-0.1,0-0.3,0-0.4c0-1.3,0.2-2.4,0.6-3.3c0,0,0-0.1,0.1-0.1
		c0.1-0.2,0.1-0.3,0.2-0.4c0.6-1.5,0.8-3,0.8-3.5c0,0,0,0,0,0c0,0,0,0,0,0l0,0c0,0,0,0,0,0c0,0,0,0,0,0c0-0.3,0-2.6,1.4-5.5
		C70.6,48.6,69.5,49.2,68.4,50.1z"/>
	<path fill="#FFFFFF" d="M91.5,38L91.5,38c-0.1-0.7-0.3-1.4-0.9-1.9c-1.2-1.2-3-1.2-4.2,0c-0.6,0.6-0.9,1.4-0.9,2.1
		c0,0.4,0,0.8-0.1,1.1c0.4,0.1,0.8,0.4,1.2,0.7c1.2,1.2,1.2,3,0,4.2c-0.6,0.6-1.4,0.9-2.1,0.9c-1.3,0-2.5,0.2-3.4,0.6
		c-0.1,0.1-0.3,0.1-0.4,0.2c-3.4,1.6-4.3,5-4.5,6.8c0.4-0.1,0.7-0.1,0.9-0.1l0,0c0,0,0,0,0,0l0,0c0,0,0,0,0,0c0,0,0,0,0,0
		c0.3,0,4.4,0,8.7-3.3c0.6-0.4,1.1-0.9,1.6-1.4c0,0,0.1-0.1,0.1-0.1C92.6,42.7,91.5,38,91.5,38z"/>
</g>
</svg>
